<svg width="24" height="24" viewBox="0 0 24 24" fill="none" xmlns="http://www.w3.org/2000/svg">
<path d="M17.1986 21.9511L22.2627 10.2613C22.7098 9.22925 22.2335 8.03028 21.2 7.58637L11.3881 3.37186C10.3913 2.94369 9.23387 3.37407 8.75898 4.34952L3.2176 15.7317C2.71274 16.7687 3.17117 18.0175 4.22708 18.4816L14.5163 23.0037C15.5476 23.4569 16.7508 22.9848 17.1986 21.9511Z" fill="#FDC0AF" stroke="#E13405" stroke-width="1.02201" stroke-linejoin="round"/>
<path d="M16.788 18.7563L19.2891 6.26469C19.51 5.1618 18.7929 4.08932 17.6893 3.87191L7.21195 1.80786C6.14751 1.59816 5.10606 2.26159 4.84619 3.31492L1.8139 15.6058C1.53764 16.7256 2.24767 17.8506 3.3774 18.083L14.386 20.3478C15.4894 20.5748 16.5669 19.8609 16.788 18.7563Z" fill="#FDC0AF" stroke="#E13405" stroke-width="1.02201" stroke-linejoin="round"/>
<path d="M16.395 3.03214V15.5944C16.395 16.7168 15.4852 17.6266 14.3628 17.6266H3.03214C1.90982 17.6266 1 16.7168 1 15.5944V4.88847L5.61283 1H14.3628C15.4852 1 16.395 1.90982 16.395 3.03214Z" fill="#FDC0AF"/>
<path d="M1 4.88847V15.5944C1 16.7168 1.90982 17.6266 3.03214 17.6266H14.3628C15.4852 17.6266 16.395 16.7167 16.395 15.5944V3.03214C16.395 1.90982 15.4852 1 14.3628 1H5.61283M1 4.88847L5.61283 1M1 4.88847H3.5807C4.70301 4.88847 5.61283 3.97865 5.61283 2.85634V1" stroke="#E13405" stroke-width="1.02201" stroke-linejoin="round"/>
<rect x="3.04492" y="7.13281" width="10.2201" height="1.02201" rx="0.511004" fill="#FC815F"/>
<rect x="3.04492" y="9.17578" width="10.2201" height="1.02201" rx="0.511004" fill="#FC815F"/>
<rect x="3.04492" y="11.2188" width="10.2201" height="1.02201" rx="0.511004" fill="#FC815F"/>
<rect x="3.04492" y="13.2656" width="10.2201" height="1.02201" rx="0.511004" fill="#FC815F"/>
</svg>
