<svg width="25" height="25" viewBox="0 0 25 25" fill="none" xmlns="http://www.w3.org/2000/svg">
<path d="M17.8607 22.8064L23.1314 10.6397C23.5968 9.5655 23.101 8.31761 22.0254 7.85559L11.8131 3.46913C10.7756 3.02349 9.57102 3.47143 9.07675 4.48668L3.30929 16.3332C2.78383 17.4125 3.26097 18.7123 4.35995 19.1953L15.069 23.9019C16.1424 24.3737 17.3947 23.8822 17.8607 22.8064Z" fill="#FD9DBA" stroke="#D20F49" stroke-width="1.0637" stroke-linejoin="round"/>
<path d="M17.4337 19.4792L20.0368 6.47794C20.2667 5.33005 19.5203 4.21381 18.3718 3.98753L7.4669 1.83927C6.35902 1.62101 5.27508 2.31151 5.00461 3.40781L1.84861 16.2001C1.56107 17.3656 2.30008 18.5365 3.47589 18.7784L14.9336 21.1356C16.082 21.3718 17.2035 20.6288 17.4337 19.4792Z" fill="#FD9DBA" stroke="#D20F49" stroke-width="1.0637" stroke-linejoin="round"/>
<path d="M17.0231 3.11505V16.1899C17.0231 17.358 16.0761 18.3049 14.908 18.3049H3.11505C1.94694 18.3049 1 17.358 1 16.1899V5.04712L5.80103 1H14.908C16.0761 1 17.0231 1.94694 17.0231 3.11505Z" fill="#FD9DBA"/>
<path d="M1 5.04712V16.1899C1 17.358 1.94694 18.3049 3.11505 18.3049H14.908C16.0761 18.3049 17.0231 17.358 17.0231 16.1899V3.11505C17.0231 1.94694 16.0761 1 14.908 1H5.80103M1 5.04712L5.80103 1M1 5.04712H3.68599C4.8541 5.04712 5.80103 4.10018 5.80103 2.93207V1" stroke="#D20F49" stroke-width="1.0637" stroke-linejoin="round"/>
<rect x="5.25586" y="6.31836" width="8.50964" height="8.50964" rx="2.12741" fill="#F0356D"/>
<circle cx="9.51022" cy="10.5747" r="1.77284" stroke="#FD9DBA" stroke-width="0.709136"/>
</svg>
