<svg width="24" height="25" viewBox="0 0 24 25" fill="none" xmlns="http://www.w3.org/2000/svg">
<path d="M6.63334 22.1664L1.51699 10.356C1.06526 9.31322 1.54649 8.10187 2.59064 7.65338L12.5039 3.39535C13.511 2.96276 14.6804 3.39758 15.1602 4.3831L20.7587 15.8828C21.2688 16.9305 20.8057 18.1922 19.7389 18.6611L9.34336 23.2299C8.30141 23.6878 7.08577 23.2108 6.63334 22.1664Z" fill="#FCF3C5" stroke="#CCAB08" stroke-width="1.03256" stroke-linejoin="round"/>
<path d="M7.04804 18.9358L4.52111 6.31523C4.298 5.20095 5.02247 4.11739 6.13743 3.89774L16.723 1.81237C17.7985 1.60051 18.8507 2.27079 19.1132 3.335L22.1768 15.7528C22.4559 16.8842 21.7386 18.0208 20.5972 18.2556L9.47492 20.5437C8.36012 20.7731 7.27148 20.0518 7.04804 18.9358Z" fill="#FCF3C5" stroke="#CCAB08" stroke-width="1.03256" stroke-linejoin="round"/>
<path d="M7.44605 3.05312V15.7451C7.44605 16.8791 8.36526 17.7983 9.49917 17.7983H20.9469C22.0808 17.7983 23 16.8791 23 15.7451V4.92863L18.3395 1H9.49917C8.36526 1 7.44605 1.91921 7.44605 3.05312Z" fill="#FCF3C5"/>
<path d="M23 4.92863V15.7451C23 16.8791 22.0808 17.7983 20.9469 17.7983H9.49917C8.36526 17.7983 7.44605 16.8791 7.44605 15.7451V3.05312C7.44605 1.91921 8.36526 1 9.49917 1H18.3395M23 4.92863L18.3395 1M23 4.92863H20.3927C19.2587 4.92863 18.3395 4.00941 18.3395 2.87551V1" stroke="#CCAB08" stroke-width="1.03256" stroke-linejoin="round"/>
<rect x="10.2539" y="6.16211" width="3.8243" height="3.8243" rx="0.637383" fill="#F0D65B"/>
<rect x="10.2539" y="10.9434" width="3.8243" height="3.8243" rx="0.637383" fill="#F0D65B"/>
<rect x="15.0352" y="6.16211" width="3.8243" height="3.8243" rx="0.637383" fill="#F0D65B"/>
<rect x="15.0352" y="10.9434" width="3.8243" height="3.8243" rx="0.637383" fill="#F0D65B"/>
</svg>
