<svg width="121" height="46" viewBox="0 0 121 46" fill="none" xmlns="http://www.w3.org/2000/svg">
<g filter="url(#filter0_i_3004_852)">
<rect x="1" y="1" width="36" height="36" rx="9" fill="white"/>
<rect x="1" y="1" width="36" height="36" rx="9" stroke="#E2DFDD" stroke-width="0.5"/>
<path fill-rule="evenodd" clip-rule="evenodd" d="M10.2031 14.5561C10.2031 12.8996 11.5442 11.5566 13.1984 11.5566H19.8143C21.2456 11.5566 22.4424 12.562 22.739 13.9059H25.2431C26.8031 13.9059 28.0678 15.1724 28.0678 16.7346V23.6116C28.0678 25.2682 26.7268 26.6111 25.0725 26.6111H18.6134C17.1535 26.6111 15.9375 25.5652 15.6719 24.1808H12.4616C11.2143 24.1808 10.2031 23.1683 10.2031 21.9192V14.5561ZM15.6181 22.574V19.9694L11.9233 22.291C12.0413 22.462 12.2383 22.574 12.4616 22.574H15.6181ZM11.8077 20.4666L17.5195 16.8777C18.0179 16.5646 18.2655 15.9712 18.1379 15.396L17.6425 13.1635H13.1984C12.4304 13.1635 11.8077 13.787 11.8077 14.5561V20.4666ZM19.2862 13.1635L19.7043 15.0474C19.9792 16.2863 19.4458 17.5644 18.3723 18.2389L17.2227 18.9612V23.6116C17.2227 24.3808 17.8453 25.0043 18.6134 25.0043H19.5999L19.1265 23.1419C18.7989 21.853 19.358 20.5019 20.5 19.8229L21.205 19.4037V14.5561C21.205 13.787 20.5823 13.1635 19.8143 13.1635H19.2862ZM22.8096 18.4496L26.3912 16.3201C26.2216 15.8493 25.7716 15.5128 25.2431 15.5128H22.8096V18.4496ZM26.4632 18.146L21.3193 21.2045C20.789 21.5198 20.5294 22.1471 20.6816 22.7455L21.2557 25.0043H25.0725C25.8406 25.0043 26.4632 24.3808 26.4632 23.6116V18.146Z" fill="#E13405"/>
</g>
<path d="M43 24.1112V10.8363H45.8257L49.865 18.3082L53.8854 10.8363H56.6352V24.1112H53.7906V15.6721L50.6426 21.4562H48.9548L45.8257 15.6721V24.1112H43Z" fill="#160602"/>
<path d="M62.8727 24.3388C61.9624 24.3388 61.1217 24.1555 60.3504 23.7888C59.5919 23.4095 58.985 22.8406 58.5299 22.082C58.0747 21.3108 57.8472 20.3437 57.8472 19.1805V18.8012C57.8472 17.7013 58.0747 16.7847 58.5299 16.0514C58.985 15.3182 59.5919 14.7682 60.3504 14.4015C61.1217 14.0223 61.9624 13.8326 62.8727 13.8326C63.783 13.8326 64.6174 14.0223 65.376 14.4015C66.1472 14.7682 66.7603 15.3182 67.2155 16.0514C67.6706 16.7847 67.8982 17.7013 67.8982 18.8012V19.1805C67.8982 20.3184 67.6706 21.2729 67.2155 22.0441C66.7603 22.8027 66.1472 23.3779 65.376 23.7699C64.6174 24.1491 63.783 24.3388 62.8727 24.3388ZM62.8727 22.2148C63.3531 22.2148 63.7766 22.1073 64.1433 21.8924C64.5226 21.6648 64.8197 21.3235 65.0346 20.8683C65.2495 20.4132 65.357 19.8506 65.357 19.1805V18.8012C65.357 18.1817 65.2495 17.6634 65.0346 17.2462C64.8197 16.829 64.5226 16.5129 64.1433 16.298C63.7766 16.0704 63.3531 15.9566 62.8727 15.9566C62.3923 15.9566 61.9624 16.0704 61.5831 16.298C61.2165 16.5129 60.9257 16.829 60.7108 17.2462C60.4958 17.6634 60.3884 18.1817 60.3884 18.8012V19.1805C60.3884 19.8632 60.4958 20.4322 60.7108 20.8873C60.9257 21.3298 61.2165 21.6648 61.5831 21.8924C61.9624 22.1073 62.3923 22.2148 62.8727 22.2148Z" fill="#160602"/>
<path d="M73.2956 24.3388C72.3853 24.3388 71.5445 24.1555 70.7733 23.7888C70.0148 23.4095 69.4079 22.8406 68.9528 22.082C68.4976 21.3108 68.2701 20.3437 68.2701 19.1805V18.8012C68.2701 17.7013 68.4976 16.7847 68.9528 16.0514C69.4079 15.3182 70.0148 14.7682 70.7733 14.4015C71.5445 14.0223 72.3853 13.8326 73.2956 13.8326C74.2059 13.8326 75.0403 14.0223 75.7988 14.4015C76.5701 14.7682 77.1832 15.3182 77.6384 16.0514C78.0935 16.7847 78.3211 17.7013 78.3211 18.8012V19.1805C78.3211 20.3184 78.0935 21.2729 77.6384 22.0441C77.1832 22.8027 76.5701 23.3779 75.7988 23.7699C75.0403 24.1491 74.2059 24.3388 73.2956 24.3388ZM73.2956 22.2148C73.776 22.2148 74.1995 22.1073 74.5662 21.8924C74.9455 21.6648 75.2426 21.3235 75.4575 20.8683C75.6724 20.4132 75.7799 19.8506 75.7799 19.1805V18.8012C75.7799 18.1817 75.6724 17.6634 75.4575 17.2462C75.2426 16.829 74.9455 16.5129 74.5662 16.298C74.1995 16.0704 73.776 15.9566 73.2956 15.9566C72.8152 15.9566 72.3853 16.0704 72.006 16.298C71.6394 16.5129 71.3486 16.829 71.1337 17.2462C70.9187 17.6634 70.8113 18.1817 70.8113 18.8012V19.1805C70.8113 19.8632 70.9187 20.4322 71.1337 20.8873C71.3486 21.3298 71.6394 21.6648 72.006 21.8924C72.3853 22.1073 72.8152 22.2148 73.2956 22.2148Z" fill="#160602"/>
<path d="M83.2444 24.3388C82.4226 24.3388 81.7336 24.2566 81.1773 24.0922C80.621 23.9152 80.1595 23.6814 79.7929 23.3906C79.4389 23.0871 79.1734 22.7458 78.9964 22.3665C78.832 21.9872 78.7309 21.589 78.693 21.1718H81.1962C81.2594 21.5005 81.4554 21.7723 81.7841 21.9872C82.1128 22.1895 82.5996 22.2906 83.2444 22.2906C83.9776 22.2906 84.5023 22.1895 84.8184 21.9872C85.1345 21.7849 85.2925 21.5258 85.2925 21.2097C85.2925 20.9821 85.223 20.7988 85.0839 20.6597C84.9448 20.508 84.6983 20.3816 84.3443 20.2804C83.9903 20.1667 83.4909 20.0529 82.8461 19.9391C82.2898 19.8632 81.7778 19.7621 81.31 19.6357C80.8549 19.4966 80.4503 19.307 80.0963 19.0667C79.7423 18.8265 79.4642 18.5294 79.2619 18.1754C79.0722 17.8088 78.9774 17.3663 78.9774 16.8479C78.9774 16.2916 79.1418 15.7859 79.4705 15.3308C79.8118 14.8757 80.2986 14.5153 80.9307 14.2498C81.5755 13.9717 82.3467 13.8326 83.2444 13.8326C84.2179 13.8326 84.9954 13.9843 85.577 14.2878C86.1585 14.5912 86.5947 14.9831 86.8855 15.4635C87.1763 15.944 87.3533 16.456 87.4165 16.9996H84.9132C84.8121 16.633 84.6161 16.3549 84.3253 16.1652C84.0345 15.9756 83.6742 15.8808 83.2444 15.8808C82.6122 15.8808 82.1571 15.9819 81.8789 16.1842C81.6134 16.3738 81.4807 16.614 81.4807 16.9048C81.4807 17.2082 81.6261 17.4421 81.9169 17.6065C82.2203 17.7709 82.8335 17.9162 83.7564 18.0427C84.3253 18.1185 84.85 18.2323 85.3304 18.384C85.8235 18.5231 86.2533 18.7127 86.62 18.953C86.9866 19.1932 87.2711 19.4966 87.4734 19.8632C87.6883 20.2172 87.7958 20.6534 87.7958 21.1718C87.7958 21.7913 87.6251 22.3412 87.2837 22.8216C86.955 23.2894 86.4493 23.6624 85.7666 23.9405C85.0965 24.206 84.2558 24.3388 83.2444 24.3388Z" fill="#160602"/>
<path d="M88.6459 27.904V14.0602H90.9595V15.5394C91.2124 15.0843 91.6106 14.686 92.1543 14.3447C92.6979 14.0033 93.3869 13.8326 94.2214 13.8326C95.5615 13.8326 96.6045 14.2498 97.3505 15.0843C98.109 15.906 98.4883 17.145 98.4883 18.8012V19.1805C98.4883 20.331 98.3113 21.2919 97.9573 22.0631C97.616 22.8216 97.1292 23.3906 96.4971 23.7699C95.8649 24.1491 95.1064 24.3388 94.2214 24.3388C93.5387 24.3388 92.9318 24.1934 92.4008 23.9026C91.8825 23.5992 91.4589 23.2073 91.1302 22.7268V27.904H88.6459ZM93.6335 22.2148C94.2909 22.2148 94.8409 21.9683 95.2834 21.4752C95.7259 20.9695 95.9471 20.2046 95.9471 19.1805V18.8012C95.9471 17.853 95.7322 17.145 95.3023 16.6773C94.8851 16.1968 94.3288 15.9566 93.6335 15.9566C93.153 15.9566 92.7232 16.0514 92.3439 16.2411C91.9646 16.4181 91.6675 16.6899 91.4526 17.0565C91.2377 17.4105 91.1302 17.8657 91.1302 18.422V19.5598C91.1302 20.154 91.2313 20.6534 91.4336 21.058C91.6486 21.4499 91.9457 21.7407 92.3249 21.9303C92.7042 22.12 93.1404 22.2148 93.6335 22.2148Z" fill="#160602"/>
<path d="M99.5547 24.1112V14.0602H102.039V24.1112H99.5547ZM100.787 13.093C100.345 13.093 99.9783 12.9539 99.6875 12.6758C99.4094 12.3977 99.2703 12.0373 99.2703 11.5948C99.2703 11.1524 99.4094 10.792 99.6875 10.5139C99.9783 10.2358 100.339 10.0967 100.768 10.0967C101.224 10.0967 101.59 10.2358 101.868 10.5139C102.159 10.792 102.305 11.1524 102.305 11.5948C102.305 12.0373 102.159 12.3977 101.868 12.6758C101.59 12.9539 101.23 13.093 100.787 13.093Z" fill="#160602"/>
<path d="M103.565 24.1112V14.0602H105.841V15.5584C105.98 15.2676 106.17 14.9958 106.41 14.7429C106.65 14.49 106.947 14.2751 107.301 14.0981C107.655 13.9211 108.047 13.8326 108.477 13.8326C108.717 13.8326 108.92 13.8453 109.084 13.8706C109.261 13.8958 109.375 13.9211 109.425 13.9464V16.1652C109.299 16.1146 109.135 16.0704 108.932 16.0325C108.743 15.9819 108.483 15.9566 108.155 15.9566C107.649 15.9566 107.238 16.0641 106.922 16.279C106.619 16.4939 106.397 16.7784 106.258 17.1324C106.119 17.4737 106.05 17.8467 106.05 18.2513V24.1112H103.565Z" fill="#160602"/>
<path d="M114.354 24.3388C113.443 24.3388 112.603 24.1555 111.832 23.7888C111.073 23.4095 110.466 22.8406 110.011 22.082C109.556 21.3108 109.328 20.3437 109.328 19.1805V18.8012C109.328 17.6887 109.543 16.7657 109.973 16.0325C110.416 15.2992 111.003 14.7492 111.737 14.3826C112.47 14.0159 113.279 13.8326 114.164 13.8326C115.744 13.8326 116.946 14.2498 117.767 15.0843C118.589 15.9187 119 17.1261 119 18.7064V19.7684H111.888C111.914 20.3626 112.04 20.8494 112.268 21.2287C112.508 21.5953 112.811 21.8671 113.178 22.0441C113.545 22.2085 113.937 22.2906 114.354 22.2906C114.999 22.2906 115.485 22.1958 115.814 22.0062C116.143 21.8165 116.377 21.5384 116.516 21.1718H118.81C118.608 22.2211 118.109 23.0113 117.312 23.5423C116.516 24.0733 115.53 24.3388 114.354 24.3388ZM114.259 15.8808C113.867 15.8808 113.488 15.944 113.121 16.0704C112.754 16.1968 112.464 16.4244 112.249 16.7531C112.034 17.0692 111.914 17.4927 111.888 18.0237H116.573C116.56 17.4548 116.446 17.0186 116.231 16.7152C116.029 16.3991 115.757 16.1842 115.416 16.0704C115.074 15.944 114.689 15.8808 114.259 15.8808Z" fill="#160602"/>
<rect x="96" y="27" width="25" height="19" rx="9.5" fill="#FCEDE8"/>
<path d="M102.46 32.8447C102.353 33.2744 102.231 33.6862 102.095 34.0801C101.966 34.4668 101.83 34.832 101.687 35.1758C101.55 35.5124 101.411 35.8203 101.268 36.0996C101.132 36.3789 101.01 36.6224 100.902 36.8301C100.831 37.3457 100.831 37.7611 100.902 38.0762C100.974 38.3913 101.114 38.5488 101.321 38.5488C101.493 38.5488 101.661 38.4701 101.826 38.3125C101.991 38.1549 102.138 37.9616 102.267 37.7324C102.396 37.5033 102.503 37.2598 102.589 37.002C102.682 36.737 102.739 36.5007 102.761 36.293C102.625 36.2572 102.51 36.1963 102.417 36.1104C102.324 36.0173 102.277 35.8955 102.277 35.7451C102.277 35.6449 102.306 35.5518 102.363 35.4658C102.421 35.3727 102.489 35.2939 102.567 35.2295C102.646 35.165 102.732 35.1149 102.825 35.0791C102.918 35.0433 103.004 35.0254 103.083 35.0254C103.205 35.0254 103.309 35.1042 103.395 35.2617C103.48 35.4121 103.538 35.6055 103.566 35.8418C103.853 35.8346 104.154 35.7917 104.469 35.7129C104.784 35.6341 105.081 35.5339 105.36 35.4121C105.439 35.3763 105.504 35.3656 105.554 35.3799C105.604 35.3942 105.636 35.4229 105.65 35.4658C105.672 35.5088 105.672 35.5589 105.65 35.6162C105.629 35.6663 105.586 35.7057 105.521 35.7344C105.357 35.8275 105.185 35.9134 105.006 35.9922C104.834 36.0638 104.662 36.1247 104.49 36.1748C104.318 36.2249 104.154 36.2643 103.996 36.293C103.839 36.3216 103.695 36.3359 103.566 36.3359C103.538 36.6224 103.448 36.9339 103.298 37.2705C103.147 37.5999 102.965 37.9079 102.75 38.1943C102.535 38.4736 102.295 38.7064 102.03 38.8926C101.772 39.0788 101.518 39.1719 101.268 39.1719C101.189 39.1719 101.085 39.1611 100.956 39.1396C100.827 39.1182 100.702 39.043 100.58 38.9141C100.458 38.7852 100.354 38.5811 100.269 38.3018C100.183 38.0153 100.147 37.6107 100.161 37.0879C100.168 36.737 100.208 36.3646 100.279 35.9707C100.351 35.5768 100.437 35.1829 100.537 34.7891C100.637 34.3952 100.748 34.0156 100.87 33.6504C100.999 33.278 101.121 32.945 101.235 32.6514C101.35 32.3506 101.454 32.0999 101.547 31.8994C101.647 31.6989 101.722 31.57 101.772 31.5127C101.837 31.4339 101.912 31.3766 101.998 31.3408C102.084 31.2979 102.166 31.2692 102.245 31.2549C102.331 31.2334 102.41 31.2262 102.481 31.2334C102.553 31.2406 102.603 31.2513 102.632 31.2656C102.675 31.2943 102.686 31.4518 102.664 31.7383C102.65 32.0247 102.582 32.3936 102.46 32.8447ZM109.432 36.7656C109.217 37.0807 108.973 37.3887 108.701 37.6895C108.429 37.9831 108.139 38.248 107.831 38.4844C107.53 38.7135 107.219 38.8997 106.896 39.043C106.581 39.1862 106.273 39.2578 105.973 39.2578C105.815 39.2578 105.643 39.2184 105.457 39.1396C105.278 39.068 105.113 38.9535 104.963 38.7959C104.812 38.6383 104.691 38.4342 104.598 38.1836C104.512 37.9329 104.487 37.6286 104.522 37.2705C104.551 36.9769 104.641 36.6689 104.791 36.3467C104.949 36.0173 105.138 35.7165 105.36 35.4443C105.59 35.1722 105.844 34.9466 106.123 34.7676C106.41 34.5885 106.696 34.499 106.982 34.499C107.255 34.499 107.451 34.5671 107.573 34.7031C107.695 34.8392 107.749 35.0075 107.734 35.208C107.713 35.43 107.648 35.6341 107.541 35.8203C107.441 36.0065 107.319 36.1748 107.176 36.3252C107.033 36.4756 106.879 36.6117 106.714 36.7334C106.556 36.8551 106.406 36.9661 106.263 37.0664C106.105 37.1738 105.955 37.2777 105.812 37.3779C105.668 37.471 105.543 37.557 105.436 37.6357C105.443 37.8148 105.475 37.9652 105.532 38.0869C105.59 38.2087 105.661 38.3089 105.747 38.3877C105.833 38.4593 105.93 38.513 106.037 38.5488C106.152 38.5775 106.266 38.5918 106.381 38.5918C106.624 38.5918 106.879 38.5166 107.144 38.3662C107.409 38.2087 107.666 38.0225 107.917 37.8076C108.175 37.5856 108.411 37.3564 108.626 37.1201C108.848 36.8838 109.031 36.6797 109.174 36.5078C109.224 36.4505 109.274 36.4183 109.324 36.4111C109.382 36.3968 109.424 36.404 109.453 36.4326C109.489 36.4541 109.507 36.4971 109.507 36.5615C109.507 36.6188 109.482 36.6868 109.432 36.7656ZM106.682 35.1113C106.596 35.1113 106.492 35.1543 106.37 35.2402C106.256 35.3262 106.141 35.4515 106.026 35.6162C105.912 35.7738 105.804 35.9707 105.704 36.207C105.604 36.4362 105.529 36.7012 105.479 37.002C105.564 36.9375 105.658 36.873 105.758 36.8086C105.858 36.737 105.958 36.6618 106.059 36.583C106.367 36.3467 106.581 36.139 106.703 35.96C106.825 35.7809 106.893 35.627 106.907 35.498C106.922 35.362 106.907 35.2653 106.864 35.208C106.821 35.1436 106.76 35.1113 106.682 35.1113ZM112.622 36.2822C112.651 36.2393 112.687 36.2142 112.729 36.207C112.78 36.1927 112.819 36.1963 112.848 36.2178C112.876 36.2393 112.891 36.2751 112.891 36.3252C112.898 36.3753 112.88 36.4434 112.837 36.5293C112.694 36.8014 112.504 37.0951 112.268 37.4102C112.038 37.7253 111.795 38.0225 111.537 38.3018C111.279 38.5739 111.029 38.7995 110.785 38.9785C110.542 39.1576 110.338 39.2471 110.173 39.2471C109.937 39.2471 109.74 39.2005 109.582 39.1074C109.424 39.0143 109.299 38.8997 109.206 38.7637C109.12 38.6276 109.059 38.4808 109.023 38.3232C108.988 38.1585 108.977 38.0081 108.991 37.8721C108.998 37.7575 109.023 37.5534 109.066 37.2598C109.109 36.959 109.167 36.6152 109.238 36.2285C109.31 35.8346 109.389 35.4157 109.475 34.9717C109.568 34.5205 109.664 34.0872 109.765 33.6719C109.643 33.6862 109.521 33.7005 109.399 33.7148C109.278 33.7292 109.167 33.7363 109.066 33.7363C108.837 33.7363 108.622 33.7113 108.422 33.6611C108.214 33.6038 108.06 33.5501 107.96 33.5C107.903 33.4714 107.878 33.432 107.885 33.3818C107.892 33.3245 107.913 33.2708 107.949 33.2207C107.985 33.1634 108.032 33.1169 108.089 33.0811C108.139 33.0381 108.186 33.0166 108.229 33.0166C108.365 33.0309 108.511 33.0452 108.669 33.0596C108.826 33.0667 108.998 33.0667 109.185 33.0596C109.321 33.0524 109.45 33.0417 109.571 33.0273C109.7 33.013 109.826 32.9951 109.947 32.9736C110.04 32.6299 110.13 32.3327 110.216 32.082C110.309 31.8242 110.391 31.6452 110.463 31.5449C110.484 31.5091 110.531 31.4805 110.603 31.459C110.681 31.4303 110.764 31.4124 110.85 31.4053C110.936 31.391 111.018 31.391 111.097 31.4053C111.175 31.4124 111.233 31.4375 111.269 31.4805C111.304 31.5378 111.319 31.6846 111.312 31.9209C111.304 32.1572 111.265 32.458 111.193 32.8232C111.494 32.8232 111.759 32.8411 111.988 32.877C112.225 32.9056 112.425 32.9414 112.59 32.9844C112.755 33.0202 112.887 33.0596 112.987 33.1025C113.088 33.1383 113.163 33.1634 113.213 33.1777C113.263 33.1921 113.288 33.2279 113.288 33.2852C113.295 33.3424 113.285 33.4033 113.256 33.4678C113.234 33.5251 113.195 33.5752 113.138 33.6182C113.08 33.6611 113.016 33.6755 112.944 33.6611C112.873 33.654 112.79 33.6396 112.697 33.6182C112.611 33.5967 112.504 33.5788 112.375 33.5645C112.253 33.5501 112.106 33.5358 111.935 33.5215C111.763 33.5072 111.562 33.5 111.333 33.5C111.29 33.5 111.24 33.5036 111.183 33.5107C111.132 33.5107 111.079 33.5107 111.021 33.5107C110.993 33.6253 110.964 33.7399 110.936 33.8545C110.914 33.9619 110.882 34.0765 110.839 34.1982C110.746 34.4847 110.638 34.7962 110.517 35.1328C110.409 35.4264 110.28 35.763 110.13 36.1426C109.979 36.5221 109.811 36.9268 109.625 37.3564C109.582 37.6644 109.586 37.9007 109.636 38.0654C109.693 38.223 109.761 38.3376 109.84 38.4092C109.933 38.488 110.048 38.5309 110.184 38.5381C110.291 38.5524 110.42 38.5166 110.57 38.4307C110.728 38.3376 110.889 38.2158 111.054 38.0654C111.218 37.915 111.383 37.7503 111.548 37.5713C111.72 37.3923 111.877 37.2168 112.021 37.0449C112.164 36.873 112.289 36.7191 112.396 36.583C112.504 36.4398 112.579 36.3395 112.622 36.2822ZM117.488 36.8623C117.388 37.0055 117.259 37.1846 117.102 37.3994C116.944 37.6071 116.779 37.8184 116.607 38.0332C116.443 38.2409 116.278 38.4342 116.113 38.6133C115.956 38.7852 115.823 38.9069 115.716 38.9785C115.644 39.0215 115.562 39.0573 115.469 39.0859C115.376 39.1146 115.279 39.1325 115.179 39.1396C115.086 39.1468 114.996 39.1396 114.91 39.1182C114.824 39.1038 114.749 39.0752 114.685 39.0322C114.62 38.9821 114.566 38.9105 114.523 38.8174C114.488 38.7386 114.452 38.6348 114.416 38.5059C114.387 38.377 114.377 38.2158 114.384 38.0225C114.212 38.3089 114.022 38.5309 113.814 38.6885C113.607 38.8389 113.41 38.9499 113.224 39.0215C113.009 39.1003 112.794 39.1468 112.579 39.1611C112.479 39.1611 112.371 39.1253 112.257 39.0537C112.142 38.9893 112.046 38.8854 111.967 38.7422C111.888 38.5918 111.838 38.402 111.816 38.1729C111.795 37.9365 111.824 37.6572 111.902 37.335C112.003 36.8981 112.16 36.5007 112.375 36.1426C112.597 35.7845 112.837 35.4801 113.095 35.2295C113.353 34.9717 113.607 34.7783 113.857 34.6494C114.108 34.5205 114.316 34.4632 114.48 34.4775C114.674 34.5133 114.831 34.5706 114.953 34.6494C115.053 34.721 115.118 34.8285 115.146 34.9717C115.182 35.1077 115.125 35.2904 114.975 35.5195C115.075 35.498 115.157 35.4837 115.222 35.4766C115.293 35.4694 115.347 35.4658 115.383 35.4658C115.426 35.4658 115.454 35.4694 115.469 35.4766C115.476 35.4909 115.479 35.5231 115.479 35.5732C115.479 35.6162 115.469 35.6986 115.447 35.8203C115.426 35.9421 115.394 36.1068 115.351 36.3145C115.308 36.5221 115.25 36.7907 115.179 37.1201C115.164 37.1846 115.15 37.2454 115.136 37.3027C115.129 37.3529 115.118 37.4066 115.104 37.4639C115.096 37.514 115.086 37.5749 115.071 37.6465C115.057 37.7181 115.039 37.8076 115.018 37.915C115.01 37.9795 115.007 38.0511 115.007 38.1299C115.014 38.2015 115.028 38.2695 115.05 38.334C115.071 38.3984 115.104 38.4521 115.146 38.4951C115.197 38.5309 115.265 38.5488 115.351 38.5488C115.422 38.5488 115.515 38.5059 115.63 38.4199C115.744 38.3268 115.866 38.2122 115.995 38.0762C116.124 37.9329 116.257 37.779 116.393 37.6143C116.536 37.4424 116.668 37.2777 116.79 37.1201C116.912 36.9626 117.019 36.8229 117.112 36.7012C117.213 36.5794 117.284 36.4899 117.327 36.4326C117.384 36.3682 117.442 36.3324 117.499 36.3252C117.556 36.3109 117.599 36.3252 117.628 36.3682C117.657 36.4111 117.66 36.4756 117.639 36.5615C117.624 36.6475 117.574 36.7477 117.488 36.8623ZM114.341 37.335C114.377 37.1917 114.42 37.0234 114.47 36.8301C114.52 36.6367 114.563 36.4505 114.599 36.2715C114.634 36.0924 114.66 35.9456 114.674 35.8311C114.695 35.7093 114.692 35.652 114.663 35.6592C114.627 35.6663 114.588 35.6771 114.545 35.6914C114.509 35.7057 114.463 35.7165 114.405 35.7236C114.348 35.7308 114.291 35.7415 114.233 35.7559C114.291 35.6413 114.323 35.5482 114.33 35.4766C114.344 35.3978 114.348 35.3369 114.341 35.2939C114.334 35.2438 114.319 35.2044 114.298 35.1758C114.219 35.1113 114.079 35.165 113.879 35.3369C113.686 35.5016 113.46 35.8096 113.202 36.2607C113.095 36.4469 113.009 36.6475 112.944 36.8623C112.88 37.07 112.833 37.2669 112.805 37.4531C112.783 37.6393 112.78 37.804 112.794 37.9473C112.808 38.0833 112.837 38.1729 112.88 38.2158C112.959 38.2946 113.048 38.334 113.148 38.334C113.249 38.3268 113.349 38.2982 113.449 38.248C113.557 38.1908 113.66 38.1191 113.761 38.0332C113.868 37.9473 113.961 37.8577 114.04 37.7646C114.126 37.6715 114.194 37.5856 114.244 37.5068C114.301 37.4281 114.334 37.3708 114.341 37.335Z" fill="#160602"/>
<defs>
<filter id="filter0_i_3004_852" x="0.75" y="0.75" width="36.5" height="43.4" filterUnits="userSpaceOnUse" color-interpolation-filters="sRGB">
<feFlood flood-opacity="0" result="BackgroundImageFix"/>
<feBlend mode="normal" in="SourceGraphic" in2="BackgroundImageFix" result="shape"/>
<feColorMatrix in="SourceAlpha" type="matrix" values="0 0 0 0 0 0 0 0 0 0 0 0 0 0 0 0 0 0 127 0" result="hardAlpha"/>
<feOffset dy="10"/>
<feGaussianBlur stdDeviation="3.45"/>
<feComposite in2="hardAlpha" operator="arithmetic" k2="-1" k3="1"/>
<feColorMatrix type="matrix" values="0 0 0 0 0.0875481 0 0 0 0 0.0246815 0 0 0 0 0.00666238 0 0 0 0.08 0"/>
<feBlend mode="normal" in2="shape" result="effect1_innerShadow_3004_852"/>
</filter>
</defs>
</svg>
