<svg width="419" height="328" viewBox="0 0 419 328" fill="none" xmlns="http://www.w3.org/2000/svg">
<path d="M40.357 137.583C3.2352 162.183 -6.88127 212.255 17.7468 249.419L122.478 407.46C141.31 435.877 179.586 443.675 207.973 424.864L274.514 380.768C301.171 406.1 342.657 410.682 374.583 389.525L513.222 297.651C550.344 273.051 560.46 222.979 535.832 185.815L438.014 38.2063C414.728 3.06708 367.399 -6.5745 332.299 16.6856L280.853 50.7783C254.158 26.7357 213.664 22.7347 182.36 43.4792L40.357 137.583ZM172.511 386.684L214.469 293.867L246.084 341.574L181.25 384.539C178.571 386.314 175.483 386.995 172.511 386.684ZM207.535 191.808L138.595 344.312L58.0231 222.728C48.1485 207.827 52.2096 187.762 67.0797 177.907L160.126 116.247L200.492 155.169C210.349 164.674 213.168 179.347 207.535 191.808ZM234.014 120.368L201.384 88.9058L209.083 83.804C223.953 73.9499 244.015 78.0295 253.889 92.9305L321.741 195.319L313.437 212.549C297.909 244.766 305.454 283.391 331.967 307.437L365.284 337.654L347.86 349.2C332.99 359.054 312.928 354.975 303.054 340.074L237.975 241.869L251.579 211.776C265.636 180.679 258.6 144.074 234.014 120.368ZM388.741 56.3083L346.148 144.681L309.707 89.6912L359.022 57.0105C368.252 50.8942 379.802 50.9876 388.741 56.3083ZM390.432 164.185L421.213 100.321L495.556 212.505C505.431 227.406 501.369 247.472 486.499 257.326L406.844 310.112L364.409 271.626C353.779 261.985 350.757 246.502 356.979 233.592L390.432 164.185Z" stroke="#F7F5F4" stroke-width="7"/>
</svg>
