<svg width="20" height="21" fill="none" xmlns="http://www.w3.org/2000/svg"><path d="M6.283 1.47c-.759.073-1.619.259-2.125.46-1.614.642-2.594 1.84-3.004 3.672C.947 6.527.95 6.466.95 10.5s-.003 3.972.205 4.9c.496 2.22 1.847 3.527 4.117 3.981.842.168.869.169 4.728.169s3.886-.001 4.728-.169c2.323-.465 3.684-1.825 4.153-4.15.179-.886.19-1.2.177-5-.014-3.745-.012-3.709-.196-4.563-.473-2.203-1.78-3.526-3.962-4.013-.911-.204-.824-.2-4.733-.207-1.971-.004-3.719.006-3.884.022m7.4 1.494c.783.102 1.506.296 1.967.528.932.468 1.472 1.246 1.747 2.519.168.776.177.955.193 3.98.02 3.642-.012 4.312-.257 5.258-.191.74-.464 1.255-.897 1.687-.432.433-.947.706-1.687.897-.948.245-1.597.277-5.236.257-2.368-.013-2.933-.024-3.269-.069-1.747-.23-2.707-.782-3.252-1.871-.314-.629-.494-1.428-.558-2.486-.043-.711-.043-5.617 0-6.328.153-2.526.963-3.708 2.865-4.185a8.43 8.43 0 0 1 1.459-.217c.667-.042 6.567-.016 6.925.03m-4 3.525a.914.914 0 0 0-.344.328c-.049.087-.058.279-.072 1.516L9.25 9.75l-1.417.017c-1.549.018-1.51.013-1.704.222a.66.66 0 0 0-.196.494c0 .215.066.394.194.528.198.209.157.204 1.706.222l1.417.017.017 1.417c.018 1.549.013 1.508.222 1.706a.77.77 0 0 0 1.022 0c.209-.198.204-.157.222-1.706l.017-1.417 1.417-.017c1.549-.018 1.508-.013 1.706-.222.327-.344.23-.94-.19-1.172-.087-.049-.279-.058-1.516-.072L10.75 9.75l-.017-1.417c-.014-1.237-.023-1.429-.072-1.516a.8.8 0 0 0-.368-.332c-.159-.066-.48-.065-.61.004" fill-rule="evenodd" fill="#000"/></svg>