<svg width="20" height="20" fill="none" xmlns="http://www.w3.org/2000/svg"><path d="M6.483 2.957a3.94 3.94 0 0 0-.877.261c-.855.395-1.472 1.109-1.764 2.039l-.092.293-.009 4.933c-.011 5.49-.021 5.221.214 5.712.081.169.185.313.339.469.514.519 1.216.637 2.009.339.102-.039.942-.491 1.866-1.006l1.681-.936.183.015c.166.014.328.096 1.714.872.841.471 1.613.898 1.716.95.824.415 1.676.334 2.223-.212a1.84 1.84 0 0 0 .476-.762l.088-.241V5.55l-.092-.293c-.349-1.114-1.162-1.91-2.275-2.228l-.266-.076-3.517-.005c-1.934-.003-3.562.001-3.617.009m6.959 1.492c.624.132 1.142.637 1.308 1.272.043.168.05.808.047 4.911-.002 3.674-.011 4.743-.044 4.833a.46.46 0 0 1-.129.181c-.084.062-.099.063-.265.016-.101-.028-.888-.445-1.826-.968-.908-.505-1.74-.953-1.85-.996-.177-.069-.255-.078-.683-.078-.428 0-.506.008-.683.078-.11.043-.942.491-1.848.996-.948.528-1.724.939-1.826.968-.169.047-.183.046-.269-.018a.438.438 0 0 1-.13-.18c-.031-.086-.041-1.266-.042-4.832-.002-4.075.005-4.744.048-4.909.163-.627.684-1.141 1.292-1.273.316-.068 6.577-.07 6.9-.001" fill-rule="evenodd" fill="#000"/></svg>