<svg width="23" height="23" fill="none" xmlns="http://www.w3.org/2000/svg"><path d="M10.407.578c-5.031.515-9.051 4.515-9.584 9.537a10.71 10.71 0 0 0 3.092 8.748c1.669 1.663 3.705 2.676 6.128 3.051.626.097 2.288.097 2.914 0 2.427-.375 4.469-1.393 6.134-3.058a10.702 10.702 0 0 0 3.005-5.823c.165-.975.176-2.382.028-3.356-.743-4.874-4.677-8.616-9.567-9.099-.475-.047-1.69-.047-2.15 0m2.109 1.495c1.655.171 3.201.788 4.607 1.842.483.362 1.37 1.249 1.732 1.732 1.041 1.39 1.676 2.989 1.848 4.659.067.645.026 1.933-.08 2.536a9.278 9.278 0 0 1-6.267 7.227c-.913.301-1.815.439-2.856.439s-1.943-.138-2.856-.439c-3.287-1.081-5.659-3.821-6.273-7.247-.079-.442-.089-.616-.089-1.552 0-.927.011-1.112.087-1.536a9.375 9.375 0 0 1 1.776-4.087c.362-.483 1.249-1.37 1.732-1.732 1.964-1.471 4.206-2.093 6.639-1.842M11.327 5.19a.86.86 0 0 0-.388.396c-.043.101-.052.717-.052 3.361 0 2.187.013 3.273.04 3.346.061.161.303.391.457.434.083.023 1.272.038 3.084.038 2.927 0 2.951-.001 3.117-.081.535-.259.529-1.033-.009-1.331-.104-.057-.373-.065-2.653-.075l-2.538-.011-.011-2.79-.012-2.791-.115-.185c-.196-.317-.598-.452-.92-.311" fill-rule="evenodd" fill="#000"/></svg>