<svg width="22" height="22" fill="none" xmlns="http://www.w3.org/2000/svg"><path d="M7.003.282c-2.168.128-3.811.74-4.896 1.825-.976.976-1.526 2.283-1.765 4.2C.281 6.792.275 7.2.275 11c0 4.554.001 4.567.225 5.683.564 2.8 2.291 4.418 5.22 4.892.908.146 1.035.15 5.28.15s4.372-.004 5.28-.15c2.974-.481 4.671-2.101 5.241-5.002.189-.963.195-1.094.212-4.491.011-2.163.004-3.232-.023-3.319-.029-.1-.955-1.045-4.181-4.271C15.25 2.213 13.339.328 13.283.304c-.077-.033-.83-.043-3.09-.039a264.43 264.43 0 0 0-3.19.017m5.245 3.229c.001 2.371.051 2.973.313 3.786.183.567.409.943.804 1.338.395.395.771.621 1.338.804.813.262 1.415.312 3.788.313l1.754.001-.014 2.796c-.014 2.635-.019 2.824-.092 3.278-.454 2.816-1.662 3.964-4.574 4.346-.532.07-8.598.07-9.13 0-1.531-.201-2.571-.623-3.278-1.33-.707-.707-1.129-1.747-1.33-3.278-.07-.532-.07-8.598 0-9.13.279-2.124.972-3.306 2.337-3.99.68-.34 1.533-.546 2.729-.661.071-.007 1.304-.015 2.741-.018l2.613-.006.001 1.751m5.655 4.732c-1.412.012-1.997-.024-2.525-.158-.837-.212-1.25-.625-1.461-1.457-.133-.524-.167-1.028-.167-2.482V2.805l2.713 2.713 2.714 2.714-1.274.011M6.816 10.354c-.305.107-.612.31-.775.51-.242.296-1.288 1.916-1.376 2.129a1.826 1.826 0 0 0-.084.948c.096.462.15.528 1.697 2.071 1.585 1.582 1.595 1.59 2.124 1.672.328.051.639.001.976-.156.227-.106.364-.232 1.661-1.534 1.173-1.178 1.43-1.454 1.511-1.625.127-.268.171-.469.172-.782.002-.469-.058-.598-.806-1.724-.7-1.054-.844-1.226-1.173-1.394-.385-.197-.443-.202-2.124-.202-1.541.001-1.564.002-1.803.087m3.238 1.425c.076.061 1.171 1.709 1.195 1.799.014.053-.282.37-1.261 1.349-.839.839-1.305 1.28-1.354 1.28-.079 0-2.621-2.515-2.621-2.594 0-.068 1.161-1.795 1.235-1.839.103-.059 2.73-.055 2.806.005" fill-rule="evenodd" fill="#000"/></svg>