<svg width="15" height="15" fill="none" xmlns="http://www.w3.org/2000/svg"><path d="M5.053.777c-2.165.118-3.433.935-3.977 2.564-.177.529-.262 1.03-.301 1.78-.033.619-.032 4.163.001 4.767.041.759.123 1.242.3 1.771.194.581.466 1.035.848 1.417.626.626 1.468.974 2.706 1.117.341.04.651.044 2.87.044 2.219 0 2.529-.004 2.87-.044 1.238-.143 2.08-.491 2.706-1.117.621-.62.974-1.471 1.114-2.68.034-.292.044-.705.053-2.224.009-1.334.004-1.904-.016-2.002l-.029-.136-2.61-2.611C9.245 1.079 8.967.81 8.87.783 8.745.749 5.655.744 5.053.777m3.255 2.354c.012 1.462.015 1.504.142 1.958.211.752.674 1.22 1.435 1.451.453.137.525.143 1.998.154l1.37.01-.01 1.767c-.008 1.523-.015 1.803-.052 2.029-.146.884-.371 1.42-.777 1.847-.436.457-1.048.716-2.026.858-.174.025-.836.033-2.9.033-2.957 0-2.903.002-3.559-.166-.586-.15-.953-.346-1.304-.697-.446-.446-.674-.976-.818-1.9-.041-.263-.044-.515-.044-2.975s.003-2.712.044-2.975c.144-.924.372-1.454.818-1.9.446-.446 1.014-.69 1.888-.811.402-.056.362-.055 2.141-.06l1.642-.004.012 1.381m3.673 2.664c-1.817.021-2.349-.149-2.603-.83-.134-.36-.177-.819-.178-1.902v-.7l1.713 1.712 1.712 1.713-.644.007m-6.49.606c-.12.036-.205.113-.888.802-.616.623-.661.675-.692.794a.478.478 0 0 0 .592.592c.11-.029.161-.066.375-.279l.247-.247V9.33c0 .84.009 1.312.028 1.398.108.504.836.504.944 0 .019-.086.028-.558.028-1.398V8.063l.247.247c.214.213.265.25.375.279a.472.472 0 0 0 .591-.333.566.566 0 0 0-.034-.374 26.29 26.29 0 0 0-.706-.723c-.789-.794-.85-.835-1.107-.758" fill-rule="evenodd" fill="#000"/></svg>