<svg width="28" height="26" fill="none" xmlns="http://www.w3.org/2000/svg"><path d="M20.58 2.296a1.729 1.729 0 0 0-1.24.885c-.061.119-.269.833-.463 1.586a42.249 42.249 0 0 1-.395 1.47c-.033.077-.193.15-.71.321-.848.281-1.136.426-1.386.698a1.746 1.746 0 0 0-.124 2.216c.259.353.494.486 1.381.786.656.222.813.292.861.385.032.063.198.576.369 1.14.171.565.354 1.138.408 1.274.14.352.45.676.823.86.288.142.344.153.778.153.419 0 .496-.014.736-.131.338-.166.65-.476.796-.791.062-.135.265-.749.451-1.365.185-.616.372-1.155.414-1.199.043-.043.424-.187.848-.318.851-.264 1.168-.435 1.405-.758.272-.371.338-.575.341-1.061.003-.392-.011-.476-.127-.724a1.836 1.836 0 0 0-.654-.754c-.097-.062-.531-.229-.963-.369-.432-.14-.81-.285-.84-.321-.03-.035-.219-.704-.421-1.486-.201-.782-.402-1.492-.447-1.579-.345-.675-1.069-1.035-1.841-.918m.436 1.496c.055.04.198.511.453 1.498.388 1.493.456 1.685.71 1.974.242.277.521.422 1.293.674.399.13.772.267.83.304.117.074.144.301.046.381-.032.026-.383.147-.781.268-.398.122-.805.262-.903.312a2.085 2.085 0 0 0-.708.664c-.06.104-.279.743-.486 1.418a37.801 37.801 0 0 1-.402 1.272c-.041.066-.33.051-.388-.019-.029-.034-.209-.581-.401-1.214-.421-1.39-.47-1.506-.762-1.798-.293-.293-.363-.328-1.254-.617-.407-.132-.766-.261-.798-.287-.096-.077-.07-.302.044-.382.057-.039.422-.178.813-.308.793-.265 1.062-.418 1.293-.737.246-.338.249-.348.642-1.863.205-.792.405-1.467.447-1.514.09-.099.199-.108.312-.026M8.507 5.591a1.663 1.663 0 0 0-.998.918c-.053.12-.42 1.397-.815 2.839-.55 2.003-.742 2.64-.814 2.7-.052.043-.803.314-1.669.602s-1.692.582-1.836.654a1.81 1.81 0 0 0-.796.873c-.08.202-.105.362-.106.663-.001.347.017.434.142.7.166.349.458.661.763.815.117.058.955.345 1.863.637 1.231.395 1.666.554 1.711.624.033.052.388 1.172.789 2.49.4 1.318.761 2.461.802 2.539.04.079.171.247.289.374.806.861 2.278.645 2.785-.409.061-.128.437-1.303.834-2.611.41-1.351.753-2.401.793-2.43.039-.029.802-.277 1.695-.553a59.27 59.27 0 0 0 1.873-.599c.324-.127.719-.491.868-.798.389-.806.109-1.834-.615-2.258-.119-.07-1.014-.384-1.989-.699-.975-.315-1.8-.599-1.833-.632-.033-.034-.389-1.258-.79-2.72-.504-1.841-.773-2.744-.873-2.932a1.62 1.62 0 0 0-.78-.723c-.345-.162-.937-.191-1.293-.064m.777 1.498c.026.049.376 1.282.777 2.741.401 1.46.77 2.734.821 2.833.132.26.421.556.678.694.123.066.99.366 1.927.667.937.3 1.74.566 1.784.589.128.068.157.267.053.368-.051.051-.799.306-1.826.623-.956.296-1.845.595-1.974.665a1.588 1.588 0 0 0-.676.735c-.06.132-.427 1.289-.816 2.573-.389 1.283-.74 2.37-.78 2.415a.235.235 0 0 1-.35 0c-.039-.045-.389-1.132-.778-2.415a148.8 148.8 0 0 0-.757-2.461 1.896 1.896 0 0 0-.553-.731c-.247-.196-.172-.169-3.443-1.225-.161-.052-.324-.126-.362-.164a.24.24 0 0 1 .04-.366c.061-.039.856-.321 1.768-.626.911-.305 1.739-.607 1.839-.67.227-.143.498-.44.621-.681.052-.102.422-1.377.822-2.834.4-1.457.747-2.688.772-2.734.064-.119.349-.116.413.004" fill-rule="evenodd" fill="#000"/></svg>