<svg width="18" height="18" viewBox="0 0 18 18" fill="none" xmlns="http://www.w3.org/2000/svg">
<g clip-path="url(#clip0_1646_5112)">
<path d="M1.47656 7.21175C1.17773 7.26097 0.752344 7.48597 0.527344 7.71449C0.165234 8.08011 0 8.48089 0 9.00121C0 9.71839 0.365625 10.309 1.00195 10.6219C1.72969 10.977 2.52773 10.8399 3.10078 10.2598C3.78281 9.56371 3.78281 8.43871 3.10078 7.74261C2.67188 7.31019 2.06719 7.1098 1.47656 7.21175Z" fill="#774CFE"/>
<path d="M8.77119 7.19326C8.05049 7.30225 7.45986 7.8085 7.25596 8.49404C7.1751 8.76826 7.1751 9.23232 7.25596 9.50654C7.43174 10.0937 7.90635 10.5683 8.49346 10.744C8.76768 10.8249 9.23174 10.8249 9.50596 10.744C10.0931 10.5683 10.5677 10.0937 10.7435 9.50654C10.8243 9.23232 10.8243 8.76826 10.7435 8.49404C10.5712 7.91748 10.0931 7.43232 9.53408 7.26709C9.33721 7.20732 8.93643 7.16865 8.77119 7.19326Z" fill="#774CFE"/>
<path d="M15.9785 7.19919C14.966 7.33278 14.2558 8.27497 14.407 9.27341C14.5582 10.2543 15.4933 10.9468 16.4707 10.7957C16.8187 10.7429 17.2301 10.5355 17.4726 10.2894C17.8347 9.9238 18 9.52302 18 9.00271C18 8.28552 17.6344 7.69489 16.998 7.382C16.6465 7.20974 16.323 7.15349 15.9785 7.19919Z" fill="#774CFE"/>
</g>
<defs>
<clipPath id="clip0_1646_5112">
<rect width="18" height="18" fill="white"/>
</clipPath>
</defs>
</svg>
