<svg width="18" height="18" fill="none" xmlns="http://www.w3.org/2000/svg"><path d="M9.097 1.364a.734.734 0 0 0-.419.34c-.071.12-.083.174-.083.366s.012.246.083.366c.046.078.13.177.186.221.218.165.176.163 2.893.163h2.507l-2.959 2.962C8.42 8.669 8.344 8.749 8.297 8.908c-.062.214-.059.297.014.494a.806.806 0 0 0 .406.426c.134.056.437.053.576-.004.079-.033.98-.914 3.052-2.985 1.617-1.617 2.95-2.939 2.962-2.939.012 0 .025 1.159.03 2.575l.008 2.575.091.146a.741.741 0 0 0 1.31-.07l.069-.141V5.46c0-2.909-.007-3.545-.041-3.641a.893.893 0 0 0-.377-.419l-.122-.065-3.525-.006c-2.88-.004-3.548.002-3.653.035M4.549 4.339c-1.231.264-2.116 1.228-2.268 2.471-.025.205-.032 1.154-.024 3.39.01 3.067.011 3.108.075 3.345.292 1.085 1.039 1.833 2.123 2.123.237.064.28.065 3.375.075 2.164.007 3.213 0 3.386-.023 1.142-.15 2.053-.932 2.396-2.055l.082-.27.009-2.002c.007-1.42 0-2.04-.024-2.13-.044-.166-.294-.414-.467-.466a.74.74 0 0 0-.539.034c-.175.082-.36.282-.403.437-.018.065-.03.813-.03 1.907-.001 1.964-.008 2.06-.171 2.363-.174.322-.55.608-.899.683-.096.02-1.209.028-3.265.022l-3.12-.008-.175-.071a1.516 1.516 0 0 1-.778-.784l-.067-.165v-6.42l.109-.228a1.37 1.37 0 0 1 1.016-.776c.113-.018.842-.031 1.74-.031 1.431-.001 1.554-.005 1.666-.056.564-.257.588-1.062.039-1.336l-.157-.078-1.711.002c-1.388.002-1.751.011-1.918.047" fill-rule="evenodd" fill="#000"/></svg>