<svg width="21" height="22" fill="none" xmlns="http://www.w3.org/2000/svg"><path d="M7.333.667a4.765 4.765 0 0 0-3.9 2.557 5.427 5.427 0 0 0-.265.594l-.093.265-.251.08A3.535 3.535 0 0 0 .805 5.855a3.927 3.927 0 0 0-.384 1.163c-.029.2-.036 1.568-.026 4.795.011 3.946.02 4.548.068 4.777.305 1.447.865 2.512 1.818 3.456 1.077 1.066 2.407 1.683 3.949 1.83.278.026 1.812.034 4.953.024 4.842-.015 4.645-.008 5.25-.176a4.743 4.743 0 0 0 2.883-2.246c.43-.75.632-1.559.633-2.533l.001-.468.119-.197a4.714 4.714 0 0 0 .687-2.12c.027-.292.035-1.8.026-4.867l-.013-4.445-.079-.347c-.222-.98-.644-1.761-1.314-2.437-.831-.839-1.873-1.31-3.094-1.399C15.76.626 7.845.628 7.333.667m9.261 1.274a3.589 3.589 0 0 1 2.841 2.618l.078.289v9.52l-.08.297a3.628 3.628 0 0 1-2.307 2.471c-.564.189-.544.189-4.88.189H8.234l-.02-.971c-.02-1.037-.046-1.232-.217-1.651a2.911 2.911 0 0 0-1.688-1.595c-.371-.129-.625-.157-1.435-.158H4.13V5.192l.129-.085c.257-.169.334-.515.182-.82l-.08-.16.116-.235a3.576 3.576 0 0 1 2.57-1.95c.394-.072 9.139-.072 9.547-.001m-5.569 3.208c-.462.185-.478.893-.024 1.113.15.072.178.073 3.052.073 2.873 0 2.901-.001 3.051-.073.455-.221.432-.938-.035-1.115-.132-.05-5.919-.048-6.044.002m-8.072 9.55c.125.617.382 1.251.701 1.729a4.767 4.767 0 0 0 2.997 2.041c.279.06.584.064 5.144.064 4.554 0 4.866-.004 5.145-.064.54-.116 1.148-.354 1.55-.608.075-.047.143-.08.15-.072.033.033-.142.561-.282.851-.451.933-1.209 1.574-2.24 1.895l-.315.098-4.743.009c-5.165.011-5.03.015-5.726-.187-1.665-.482-3.021-1.826-3.496-3.465-.214-.739-.204-.481-.218-5.195-.009-2.871-.002-4.414.022-4.595a2.349 2.349 0 0 1 1.027-1.611l.184-.122.02 4.468c.018 4.035.026 4.496.08 4.764m4.443-6.756c-.358.163-.457.64-.195.95.184.219-.119.207 5.046.207 3.252 0 4.754-.012 4.822-.037.467-.177.49-.894.035-1.115l-.151-.073-4.705.001c-4.547.001-4.71.003-4.852.067m.133 2.732a.689.689 0 0 0-.478.506c-.051.268.164.608.43.682.193.054 9.372.051 9.533-.003a.619.619 0 0 0 .421-.593.561.561 0 0 0-.185-.439c-.199-.18.075-.17-4.93-.176-2.57-.003-4.726.007-4.791.023m-1.911 3.536c.502.071.956.414 1.2.907l.13.261.011.938c.008.703.001.938-.03.938-.24 0-.986-.319-1.345-.575-.549-.392-1.021-1.001-1.242-1.603a4.307 4.307 0 0 1-.191-.753l-.022-.149.622.001c.342 0 .732.016.867.035" fill-rule="evenodd" fill="#000"/></svg>