<svg width="20" height="20" fill="none" xmlns="http://www.w3.org/2000/svg"><path d="M9.017 2.231a4.859 4.859 0 0 0-3.932 4.036c-.093.578-.049 1.446.1 1.961.055.19.255.439.422.525a.851.851 0 0 0 1.214-.559c.04-.153.037-.217-.025-.575-.18-1.028.069-1.937.746-2.727.34-.396.944-.77 1.508-.932.248-.071.328-.077 1.133-.077.801 0 .887.006 1.127.076a3.208 3.208 0 0 1 1.386.804c.275.271.468.552.655.95.228.487.266.68.264 1.337-.002.518-.01.592-.092.86a3.168 3.168 0 0 1-.753 1.302c-.121.125-.845.715-1.609 1.309s-1.459 1.158-1.545 1.253c-.339.378-.461.752-.464 1.426-.002.423.007.502.068.634a.85.85 0 0 0 1.558 0c.051-.115.071-.245.082-.543l.015-.392 1.335-1.039a65.096 65.096 0 0 0 1.517-1.202c1.784-1.616 2.139-4.28.838-6.275-.721-1.105-1.792-1.843-3.098-2.136-.396-.088-2.001-.099-2.45-.016m.696 13.316a1.167 1.167 0 0 0-.596.361c-.17.196-.24.346-.285.601-.111.64.306 1.232.96 1.359a1.19 1.19 0 0 0 1.249-.592 1.189 1.189 0 0 0-.769-1.731.985.985 0 0 0-.559.002" fill="#564F4D" fill-rule="evenodd"/></svg>