<svg width="20" height="20" fill="none" xmlns="http://www.w3.org/2000/svg"><path d="m9.283.953-.363.05c-.553.075-1.227.334-1.664.639-.113.079-1.257.964-2.542 1.965-1.544 1.204-2.41 1.901-2.553 2.055a4.899 4.899 0 0 0-1.003 1.721c-.237.69-.229.527-.217 4.5.011 3.291.017 3.586.072 3.817.359 1.503 1.397 2.66 2.82 3.144.645.219.26.206 6.167.206 5.048 0 5.366-.003 5.633-.061 1.702-.364 2.944-1.587 3.358-3.306.05-.209.057-.59.067-3.747.009-3.098.004-3.547-.042-3.795-.185-.985-.727-1.97-1.435-2.608-.153-.139-4.5-3.212-5.55-3.924-.374-.255-.961-.492-1.465-.593C10.319.967 9.477.925 9.283.953m1.067 1.543c.166.034.413.116.55.182.277.134 5.361 3.679 5.677 3.959.107.094.267.269.357.387.2.264.471.806.572 1.143l.075.25.011 3.133c.012 3.192-.001 3.676-.112 4.053-.212.716-.792 1.382-1.497 1.716-.553.263-.184.248-5.983.248-5.799 0-5.43.015-5.983-.248a2.886 2.886 0 0 1-1.527-1.812c-.072-.257-.072-.262-.073-3.707 0-3.185.004-3.468.058-3.679.124-.481.443-1.081.755-1.42.107-.116 1.178-.974 2.52-2.019 2.565-1.998 2.658-2.06 3.233-2.181a3.807 3.807 0 0 1 1.367-.005m-.483 9.27c-.258.048-.498.256-.568.492-.025.086-.033.581-.026 1.564l.01 1.438.105.145a.824.824 0 0 0 .612.328.824.824 0 0 0 .612-.328l.105-.145.01-1.438c.007-.983-.001-1.478-.026-1.564-.097-.33-.483-.557-.834-.492" fill-rule="evenodd" fill="#000"/></svg>