<svg width="20" height="20" fill="none" xmlns="http://www.w3.org/2000/svg"><path d="M5.489 1.07c-1.3.137-2.319 1.013-2.696 2.317-.065.223-.076.341-.076.78 0 .555.042.778.237 1.244.177.423.627.99 1.013 1.274a3.175 3.175 0 0 0 2.729.463c1.787-.54 2.694-2.472 1.974-4.209C8.159 1.707 6.833.928 5.489 1.07m.852 1.292c.56.155 1.083.667 1.263 1.236.096.305.096.832 0 1.138a1.996 1.996 0 0 1-1.155 1.203c-.244.089-.781.12-1.06.062-.642-.133-1.253-.73-1.404-1.371a2.228 2.228 0 0 1 0-.927c.143-.609.707-1.186 1.319-1.35.262-.071.766-.066 1.037.009m7.226 3.462c-.795.058-1.506.563-2.104 1.493-.048.073-.472.831-.945 1.683-1.023 1.848-1.081 1.93-1.501 2.135a.811.811 0 0 1-.45.098c-.445 0-.745-.193-1.255-.809-.617-.744-1.188-1.099-1.925-1.198-.451-.06-.973.065-1.443.346-.233.139-.584.477-.791.761-.199.274-1.812 3.491-1.93 3.85a3.406 3.406 0 0 0-.177 1.3c.05.971.449 1.834 1.147 2.486.631.59 1.328.895 2.206.967.272.023 2.32.03 5.884.022 5.444-.012 5.468-.012 5.75-.083.534-.133.919-.295 1.278-.538 1.366-.923 1.954-2.663 1.417-4.187-.122-.345-2.728-6.418-2.888-6.73-.537-1.047-1.408-1.659-2.273-1.596m.543 1.387c.223.153.446.431.639.797.155.293 2.67 6.152 2.806 6.537.463 1.306-.319 2.742-1.683 3.091-.241.062-.447.064-5.886.063-6.27 0-5.878.014-6.369-.23a2.333 2.333 0 0 1-1.099-1.119 3.093 3.093 0 0 1-.188-.483c-.067-.28-.058-.838.018-1.134.081-.317 1.636-3.451 1.861-3.75.274-.363.569-.526.952-.525.213.001.276.017.49.123.254.125.376.242.924.886.494.58 1.083.914 1.761.998.475.059.989-.06 1.454-.337.232-.137.687-.581.849-.829.067-.101.5-.866.962-1.7.953-1.719 1.046-1.868 1.335-2.157.286-.286.481-.379.77-.367a.587.587 0 0 1 .404.136" fill-rule="evenodd" fill="#000"/></svg>