<svg width="15" height="21" fill="none" xmlns="http://www.w3.org/2000/svg"><path d="M4.253.503C2.91.599 2.05.929 1.429 1.586.815 2.235.521 3.103.395 4.638c-.047.582-.047 11.142 0 11.725.126 1.534.42 2.402 1.034 3.051.634.67 1.482.987 2.909 1.086.467.033 6.066.032 6.537-.001.922-.063 1.529-.201 2.063-.468.302-.152.482-.277.72-.504.576-.547.91-1.297 1.065-2.39.114-.803.115-.851.115-6.637 0-5.783-.001-5.83-.115-6.637-.207-1.474-.772-2.39-1.787-2.895C12.412.706 11.808.568 10.9.5 10.497.47 4.674.472 4.253.503m6.472 1.473c1.007.062 1.54.227 1.931.595.33.312.511.804.636 1.729.039.284.043.825.052 5.925.006 3.928.001 5.733-.018 6.013-.057.825-.169 1.355-.373 1.774-.284.58-.763.842-1.79.98-.257.035-.72.042-3.213.051-2.967.011-3.581-.001-4.121-.082-.598-.09-1.014-.265-1.293-.546-.345-.349-.514-.832-.64-1.84-.041-.33-.061-11.148-.022-11.766.054-.838.164-1.378.37-1.809.321-.674.984-.966 2.344-1.033.431-.021 5.775-.014 6.137.009M5.722 3.772c-.217.086-.392.263-.448.455a1.086 1.086 0 0 0 0 .468c.039.146.195.33.353.418l.136.075H7.6c2.051 0 1.899.012 2.121-.178a.7.7 0 0 0 .237-.544.71.71 0 0 0-.386-.654l-.134-.074-1.8-.006c-1.691-.005-1.808-.003-1.916.04m1.492 9.743c-.997.223-1.67 1.181-1.606 2.283.025.413.14.773.35 1.097.299.46.704.753 1.216.883.277.07.725.057.975-.028a2.158 2.158 0 0 0 1.404-1.587c.02-.09.033-.302.033-.525-.001-.314-.01-.41-.059-.588-.202-.736-.766-1.329-1.439-1.512a2.383 2.383 0 0 0-.874-.023m.553 1.487c.252.122.397.474.333.812-.075.398-.392.63-.668.489-.453-.231-.454-1.076-.002-1.3.135-.066.201-.067.337-.001" fill-rule="evenodd" fill="#000"/></svg>