<svg width="20" height="20" fill="none" xmlns="http://www.w3.org/2000/svg"><path d="M8.6 3.151A7.013 7.013 0 0 0 3.686 7c-.507 1.056-.752 2.356-.659 3.492.147 1.782.88 3.344 2.132 4.546 1.191 1.142 2.657 1.795 4.349 1.935a7.036 7.036 0 0 0 2.704-.343 7.003 7.003 0 0 0 4.638-5.244c.121-.597.11-.684-.101-.772-.15-.062-.238-.027-.532.217a4.9 4.9 0 0 1-3.004 1.159c-1.296.054-2.46-.347-3.473-1.197-.733-.615-1.342-1.586-1.574-2.51a4.77 4.77 0 0 1-.156-1.496 4.896 4.896 0 0 1 1.159-3.004c.244-.294.279-.382.217-.532-.088-.209-.195-.223-.786-.1M6.734 5.736c-.431 2.058.239 4.27 1.749 5.781 1.092 1.092 2.463 1.72 4.053 1.856a6.449 6.449 0 0 0 1.728-.107c.172-.037.318-.061.324-.056.028.028-.455.582-.757.869-.781.742-1.723 1.22-2.848 1.444-.476.094-1.543.084-2.05-.019a5.462 5.462 0 0 1-2.885-1.552 5.483 5.483 0 0 1-1.554-2.891c-.101-.504-.109-1.578-.017-2.044.224-1.125.702-2.067 1.444-2.848.287-.302.841-.785.869-.757.005.006-.019.152-.056.324" fill-rule="evenodd" fill="#000"/></svg>