<svg width="21" height="21" fill="none" xmlns="http://www.w3.org/2000/svg"><path d="M9.625 1.259c-2.414.408-4.342 2.165-4.95 4.507-.153.589-.165.726-.193 2.214-.026 1.42-.029 1.46-.12 1.795-.144.535-.22.688-.865 1.763-.333.554-.649 1.111-.701 1.236-.497 1.186-.038 2.475 1.088 3.059.493.255 1.957.665 3.146.881.325.059.328.061.377.187.415 1.05 1.22 1.804 2.273 2.126.29.089.357.096.925.096.568 0 .635-.007.925-.096.641-.196 1.284-.617 1.672-1.096.233-.288.356-.492.519-.863l.123-.281.65-.129c1.117-.222 2.289-.551 2.744-.769a2.456 2.456 0 0 0 1.333-2.689c-.082-.403-.142-.524-.834-1.689-.653-1.101-.712-1.223-.854-1.763-.09-.341-.093-.39-.119-1.785-.03-1.648-.064-1.907-.356-2.713-.687-1.898-2.339-3.395-4.28-3.881-.765-.191-1.764-.235-2.503-.11m1.951 1.259a4.955 4.955 0 0 1 3.67 3.176c.243.673.264.851.294 2.461.025 1.386.03 1.469.115 1.82.099.41.234.804.367 1.068.048.096.331.582.629 1.079.596.997.693 1.186.728 1.431.064.442-.229.987-.642 1.196-.496.249-2.248.686-3.437.857-.994.143-1.317.162-2.73.16-1.21-.002-1.463-.012-2.029-.081a20.153 20.153 0 0 1-3.553-.757c-.556-.176-.795-.318-.963-.572-.143-.216-.186-.395-.167-.706.019-.321.048-.381.745-1.54.668-1.113.757-1.291.907-1.821.16-.563.168-.643.196-2.134.024-1.293.035-1.491.102-1.799.453-2.08 2.055-3.582 4.15-3.892a5.586 5.586 0 0 1 1.618.054m-1.257 2.418a.596.596 0 0 0-.31.389c-.024.087-.033.671-.027 1.634l.011 1.499.1.132c.146.191.286.265.505.265.102 0 .23-.023.285-.051a.702.702 0 0 0 .315-.396c.046-.163.048-2.874.003-3.068a.54.54 0 0 0-.317-.396.605.605 0 0 0-.565-.008m-.169 12.095c.368.013.977.005 1.413-.018.421-.023.774-.032.786-.021.011.011-.105.143-.258.293-.54.529-1.211.733-1.92.583-.255-.054-.626-.212-.784-.334-.153-.117-.532-.499-.532-.536 0-.02.125-.025.324-.011.178.012.615.032.971.044" fill-rule="evenodd" fill="#000"/></svg>