<svg width="22" height="22" fill="none" xmlns="http://www.w3.org/2000/svg"><path d="M5.703 2.135c-.262.095-1.688 1.008-2.149 1.376-.824.657-1.42 1.381-1.789 2.172-.318.683-.532 1.458-.664 2.412C.948 9.197.935 9.617.935 13.438c0 3.489.003 3.68.07 3.942.306 1.202 1.161 2.082 2.358 2.429.281.081.315.083 2.357.082h2.072l.328-.103a3.271 3.271 0 0 0 2.171-2.17l.102-.33.013-1.961c.013-2.084.002-2.281-.159-2.753a2.976 2.976 0 0 0-.543-.968 3.24 3.24 0 0 0-1.584-1.07l-.328-.102-2.521-.012c-2.343-.012-2.521-.017-2.521-.075a35.3 35.3 0 0 1 .113-1.639 9.678 9.678 0 0 1 .348-1.698c.387-1.18 1.014-1.847 2.731-2.905.332-.204.642-.407.689-.451.138-.127.234-.353.254-.599a.638.638 0 0 0-.081-.431 1.094 1.094 0 0 0-.232-.312c-.239-.198-.606-.272-.869-.177m10.649.008c-.151.056-.834.468-1.392.839-2.371 1.58-3.142 3.125-3.336 6.68-.049.893-.048 7.189.001 7.49.113.702.404 1.258.933 1.787.529.529 1.085.819 1.787.933.133.022.977.038 2.013.038 1.965 0 2.177-.017 2.704-.22.509-.197 1.058-.623 1.407-1.095a3.7 3.7 0 0 0 .514-1.056c.08-.281.081-.33.082-2.377 0-1.919-.006-2.11-.067-2.329-.326-1.15-1.128-1.969-2.273-2.318-.258-.079-.312-.08-2.789-.093l-2.526-.012.025-.466c.108-2.065.402-3.268.993-4.058.469-.625 1.249-1.244 2.475-1.966.38-.223.534-.386.608-.643a.904.904 0 0 0-.076-.731c-.216-.37-.692-.547-1.083-.403M7.639 12.315c.532.176.864.593.941 1.185.045.349.045 2.975 0 3.323-.059.455-.264.8-.608 1.028-.341.226-.381.229-2.354.218l-1.786-.011-.239-.114c-.263-.126-.553-.394-.666-.615-.176-.342-.176-.341-.177-2.782v-2.3h2.341c2.187 0 2.355.004 2.548.068m10.621-.014c.416.111.825.519.935.936.082.307.08 3.555-.002 3.847a1.401 1.401 0 0 1-.951.938c-.191.051-.456.057-1.98.047l-1.76-.011-.239-.113a1.527 1.527 0 0 1-.712-.712l-.113-.238-.01-2.374-.01-2.374h2.32c1.919 0 2.355.01 2.522.054" fill-rule="evenodd" fill="#000"/></svg>