<svg width="22" height="22" fill="none" xmlns="http://www.w3.org/2000/svg"><path d="M10.147.879c-2.522.245-4.717 1.287-6.426 3.049a9.494 9.494 0 0 0-1.729 2.397A10.163 10.163 0 0 0 .857 10.56c-.02.414-.013.532.04.715.114.394.535.715.936.715.205 0 .484-.115.651-.268.259-.237.31-.39.344-1.034.097-1.796.637-3.292 1.693-4.692.286-.379 1.096-1.189 1.475-1.475a8.401 8.401 0 0 1 3.021-1.458c.717-.179 1.098-.221 2.02-.219.921.001 1.341.045 2.108.218 1.656.374 3.336 1.302 4.62 2.554l.33.322-1.048.001c-1.258.001-1.344.017-1.634.307a1.008 1.008 0 0 0-.306.684c0 .234.115.493.306.684.318.318.243.31 2.814.298 2.193-.01 2.216-.011 2.363-.09a1.11 1.11 0 0 0 .47-.489c.077-.162.078-.204.089-2.618.011-2.839.022-2.732-.298-3.052a1.01 1.01 0 0 0-.684-.306c-.235 0-.493.115-.684.306-.288.288-.306.383-.306 1.574v.988l-.321-.292c-1.612-1.466-3.687-2.512-5.732-2.887-.875-.161-2.247-.238-2.977-.167m9.586 9.199a1.03 1.03 0 0 0-.554.504c-.069.138-.087.258-.115.774-.068 1.269-.324 2.251-.866 3.32a8.167 8.167 0 0 1-7.292 4.501c-1.698 0-3.362-.658-4.911-1.942-.365-.302-1.192-1.096-1.192-1.144 0-.017.492-.031 1.094-.031 1.309 0 1.388-.014 1.68-.306.191-.191.306-.449.306-.684a1.01 1.01 0 0 0-.306-.684c-.318-.318-.239-.31-2.851-.298-2.23.01-2.252.011-2.4.09-.201.107-.376.29-.47.489-.076.162-.078.204-.088 2.618-.012 2.839-.022 2.732.298 3.052.191.191.45.306.684.306.235 0 .493-.115.684-.306.285-.286.306-.389.306-1.515 0-.511.01-.929.022-.929.012 0 .173.143.357.318a11.943 11.943 0 0 0 2.742 1.94c.984.493 1.864.77 2.984.937.418.063 1.748.063 2.218.001 1.885-.248 3.5-.902 4.987-2.017.564-.423 1.508-1.367 1.929-1.93 1.313-1.757 2.036-3.816 2.046-5.83.003-.511-.006-.606-.068-.73a1.004 1.004 0 0 0-1.224-.504" fill-rule="evenodd" fill="#000"/></svg>