<svg width="17" height="17" fill="none" xmlns="http://www.w3.org/2000/svg"><path d="M3.882.529C3.49.573 2.928.73 2.635.877c-.928.468-1.596 1.221-1.916 2.161C.511 3.65.524 3.274.524 8.5s-.013 4.85.195 5.462a3.717 3.717 0 0 0 2.319 2.319c.612.208.236.195 5.462.195 4.394 0 4.705-.003 4.938-.051 1.19-.242 2.133-.966 2.685-2.06.097-.193.245-.647.302-.927.048-.233.051-.544.051-4.938s-.003-4.705-.051-4.938c-.242-1.19-.967-2.135-2.059-2.684a4.727 4.727 0 0 0-.865-.292c-.254-.059-.284-.06-4.888-.064C6.065.52 3.936.523 3.882.529m9.578 1.049c.541.172.871.367 1.233.729.373.374.591.752.736 1.277.054.192.055.342.055 4.916 0 4.574-.001 4.724-.055 4.916a2.704 2.704 0 0 1-.736 1.277 2.704 2.704 0 0 1-1.277.736c-.192.054-.342.055-4.916.055-4.574 0-4.724-.001-4.916-.055a2.704 2.704 0 0 1-1.277-.736 2.705 2.705 0 0 1-.737-1.277c-.052-.192-.054-.359-.054-4.916s.002-4.724.054-4.916c.218-.8.755-1.461 1.476-1.821.153-.076.542-.203.712-.232.076-.013 2.248-.021 4.827-.018 4.672.005 4.69.005 4.875.065M4.737 3.571c-.114.03-.273.089-.354.133-.216.115-.585.494-.693.71-.167.335-.18.465-.171 1.666l.008 1.079.08.103c.177.233.481.27.699.087.158-.133.155-.117.171-1.257.013-.94.02-1.076.065-1.176a.773.773 0 0 1 .36-.365c.119-.056.186-.061 1.062-.074.914-.014.937-.016 1.025-.078a.599.599 0 0 0 .149-.186c.096-.2.07-.382-.078-.54-.145-.156-.177-.16-1.187-.158-.821.001-.953.008-1.136.056M9.81 3.56a.481.481 0 0 0-.159.746c.133.158.117.155 1.257.171.94.013 1.076.02 1.176.065a.773.773 0 0 1 .365.36c.057.121.061.181.074 1.19.016 1.14.013 1.124.171 1.257a.474.474 0 0 0 .699-.087l.08-.103.008-1.09c.007-1.014.004-1.106-.049-1.315-.076-.298-.197-.504-.439-.747-.242-.241-.447-.362-.74-.437-.201-.052-.314-.057-1.285-.056-.923.001-1.078.007-1.158.046M8.146 6.036a2.506 2.506 0 0 0-1.869 1.366c-.194.395-.25.638-.25 1.098 0 .46.056.703.249 1.096.246.501.627.881 1.126 1.127.395.194.638.25 1.098.25.46 0 .703-.056 1.098-.25.499-.246.88-.626 1.126-1.127.193-.393.249-.636.249-1.096 0-.46-.056-.703-.25-1.098a2.503 2.503 0 0 0-1.614-1.311 3.01 3.01 0 0 0-.963-.055m.824 1.033A1.468 1.468 0 0 1 10.002 8.5a1.47 1.47 0 0 1-1.028 1.43 1.578 1.578 0 0 1-1.271-.143A1.525 1.525 0 0 1 7.4 7.464a1.529 1.529 0 0 1 1.57-.395M3.797 9.608a.436.436 0 0 0-.23.23c-.05.097-.054.18-.054 1.15 0 .948.006 1.065.056 1.264.078.305.18.478.426.727.251.254.453.375.752.451.198.051.315.057 1.138.057.996 0 1.031-.005 1.175-.16.148-.158.174-.34.078-.54a.599.599 0 0 0-.149-.186c-.088-.062-.112-.064-1.025-.078-.812-.013-.95-.022-1.048-.066a.757.757 0 0 1-.365-.359c-.057-.121-.061-.182-.074-1.181-.014-1.012-.017-1.056-.074-1.133a.455.455 0 0 0-.391-.206.8.8 0 0 0-.215.03m8.956.03a.732.732 0 0 0-.156.146c-.057.077-.06.121-.074 1.133-.013.999-.017 1.06-.074 1.181a.773.773 0 0 1-.365.36c-.1.045-.236.052-1.176.065-1.14.016-1.124.013-1.257.171a.475.475 0 0 0-.003.618c.145.173.158.175 1.324.175 1.186 0 1.334-.018 1.66-.203.206-.117.535-.446.652-.652.184-.325.203-.476.203-1.637 0-1.021-.001-1.04-.064-1.163-.091-.177-.185-.236-.397-.249-.15-.01-.192-.001-.273.055" fill-rule="evenodd" fill="#000"/></svg>