<svg width="24" height="24" viewBox="0 0 24 24" fill="none" xmlns="http://www.w3.org/2000/svg">
<path d="M12.0001 22.76C10.9101 22.76 9.83012 22.44 8.98012 21.81L7.39012 20.62C7.06012 20.37 6.99012 19.9 7.24012 19.57C7.49012 19.24 7.96012 19.17 8.29012 19.42L9.88012 20.61C11.0301 21.47 12.9801 21.47 14.1301 20.61L18.4301 17.4C19.1901 16.83 19.8501 15.5 19.8501 14.56V7.12C19.8501 6.71 20.1901 6.37 20.6001 6.37C21.0101 6.37 21.3501 6.71 21.3501 7.12V14.55C21.3501 15.97 20.4601 17.74 19.3201 18.59L15.0201 21.8C14.1701 22.44 13.0901 22.76 12.0001 22.76Z" fill="#292D32"/>
<path d="M5.3299 18.9C5.1699 18.9 5.0199 18.85 4.8799 18.75L4.6799 18.6C3.5399 17.75 2.6499 15.97 2.6499 14.56V7.12C2.6499 5.58 3.7799 3.94 5.2299 3.4L10.2199 1.53C11.2099 1.16 12.7699 1.16 13.7599 1.53L18.7599 3.4C18.9699 3.48 19.1699 3.58 19.3699 3.7C19.7199 3.92 19.8299 4.38 19.6099 4.73C19.3899 5.08 18.9299 5.19 18.5799 4.97C18.4699 4.9 18.3599 4.84 18.2399 4.8L13.2399 2.93C12.5799 2.68 11.4099 2.68 10.7499 2.93L5.7599 4.81C4.8999 5.13 4.1499 6.21 4.1499 7.13V14.56C4.1499 15.51 4.8199 16.84 5.5699 17.4L5.7699 17.55C6.0999 17.8 6.1699 18.27 5.9199 18.6C5.7899 18.79 5.5599 18.9 5.3299 18.9Z" fill="#292D32"/>
<path d="M1.99994 22.75C1.80994 22.75 1.61994 22.68 1.46994 22.53C1.17994 22.24 1.17994 21.76 1.46994 21.47L21.4699 1.47C21.7599 1.18 22.2399 1.18 22.5299 1.47C22.8199 1.76 22.8199 2.24 22.5299 2.53L2.52994 22.53C2.37994 22.68 2.18994 22.75 1.99994 22.75Z" fill="#292D32"/>
</svg>
