<svg width="26" height="25" fill="none" xmlns="http://www.w3.org/2000/svg"><path d="M4.933 1.558c-1.296.238-2.382 1.182-2.768 2.407-.129.41-.166 1.335-.07 1.784.222 1.048.882 1.888 1.897 2.414l.363.189.011 3.681.011 3.682-.401.201c-.852.428-1.514 1.186-1.799 2.06-.142.436-.183 1.339-.082 1.813.147.694.421 1.186.96 1.726.72.719 1.436 1.017 2.448 1.017 1.023 0 1.784-.32 2.513-1.058l.323-.327h9.322l.323.327c.734.743 1.491 1.06 2.522 1.059 1.005-.002 1.722-.301 2.439-1.018.725-.725 1.017-1.434 1.017-2.47 0-.761-.147-1.289-.514-1.852a4.167 4.167 0 0 0-1.074-1.081l-.274-.178.011-3.903.011-3.904.26-.17c.339-.222.914-.81 1.098-1.121.198-.336.346-.714.425-1.087.096-.449.059-1.374-.07-1.784-.345-1.096-1.29-2.006-2.416-2.327-.412-.118-1.354-.139-1.746-.039-.36.092-.775.271-1.063.46-.328.214-.864.749-1.075 1.072l-.163.249H8.631l-.236-.336a3.593 3.593 0 0 0-2.003-1.428c-.262-.073-1.178-.109-1.459-.058m1.13 1.195c.838.198 1.535.919 1.715 1.775.077.364.081.571.019.913-.152.84-.863 1.598-1.709 1.824-.291.077-.855.073-1.168-.008-.791-.206-1.499-.924-1.672-1.696-.068-.306-.055-.909.026-1.184.246-.829.949-1.482 1.774-1.646a2.756 2.756 0 0 1 1.015.022m15.192.062a2.409 2.409 0 0 1 1.471 1.562c.042.143.07.394.07.628 0 .234-.028.485-.07.628-.235.794-.872 1.422-1.646 1.624-.313.081-.877.085-1.168.008-.862-.23-1.568-.995-1.713-1.854-.201-1.193.555-2.364 1.718-2.659.349-.088.994-.058 1.338.063m-4.257 2.009c-.046.579.148 1.411.453 1.936.239.411.909 1.072 1.312 1.294.542.299.929.403 1.593.429l.574.022v7.073l-.324-.014c-.669-.029-1.427.173-1.965.524-1.197.782-1.809 2.095-1.611 3.46.023.157.054.318.069.357.025.066-.286.072-4.099.072-3.836 0-4.124-.005-4.098-.073.015-.039.048-.22.074-.401.087-.617-.04-1.418-.311-1.959-.557-1.11-1.547-1.812-2.761-1.958l-.401-.048.011-3.512.011-3.511.346-.031a3.457 3.457 0 0 0 1.3-.395c.266-.139.446-.28.78-.614.736-.734 1.024-1.4 1.035-2.394l.006-.531h8.028l-.022.274M8.58 10.162v1.625h1.343V9.923h2.384v5.157h-1.864v1.387h5.114V15.08h-1.864V9.923h2.384v1.864h1.343v-3.25H8.58v1.625m-2.296 6.704a2.31 2.31 0 0 1 1.494 1.702c.171.814-.045 1.522-.648 2.124-.489.488-.933.671-1.628.671a2.2 2.2 0 0 1-1.645-.688c-.3-.306-.526-.705-.609-1.074-.076-.34-.056-.911.043-1.231.231-.747.907-1.382 1.683-1.579.356-.09.95-.057 1.31.075m14.722-.074c.784.185 1.469.819 1.703 1.578.099.32.119.891.043 1.231-.083.369-.309.768-.609 1.074a2.2 2.2 0 0 1-1.645.688c-.693 0-1.136-.182-1.631-.671-.619-.61-.836-1.379-.624-2.208a2.307 2.307 0 0 1 2.763-1.692" fill="#000" fill-rule="evenodd"/></svg>