<svg width="20" height="20" fill="none" xmlns="http://www.w3.org/2000/svg"><path d="M5.5 4.901a.77.77 0 0 0-.546.422c-.068.136-.07.441-.003.603.036.086.653.726 2.025 2.099L8.95 10l-1.972 1.975c-1.084 1.086-1.996 2.023-2.025 2.082-.075.15-.07.48.011.636a.838.838 0 0 0 .359.353c.136.068.441.07.603.003.086-.036.726-.653 2.099-2.025L10 11.05l1.975 1.974c1.373 1.372 2.013 1.989 2.099 2.025.173.071.467.066.619-.013a.838.838 0 0 0 .353-.359c.071-.14.071-.48.001-.62-.029-.059-.941-.996-2.025-2.082L11.05 10l1.972-1.975c1.084-1.086 1.996-2.023 2.025-2.082.069-.139.069-.482 0-.629-.063-.132-.278-.336-.407-.385-.137-.052-.455-.04-.58.022-.06.031-.999.943-2.085 2.027L10 8.95 8.025 6.978c-1.086-1.084-2.012-1.99-2.058-2.014a.878.878 0 0 0-.467-.063" fill-rule="evenodd" fill="#000"/></svg>