<svg width="24" height="24" viewBox="0 0 24 24" fill="none" xmlns="http://www.w3.org/2000/svg">
<path d="M14.2199 21.63C13.0399 21.63 11.3699 20.8 10.0499 16.83L9.32988 14.67L7.16988 13.95C3.20988 12.63 2.37988 10.96 2.37988 9.77999C2.37988 8.60999 3.20988 6.93 7.16988 5.59999L15.6599 2.76999C17.7799 2.05999 19.5499 2.26999 20.6399 3.34999C21.7299 4.42999 21.9399 6.20999 21.2299 8.32999L18.3999 16.82C17.0699 20.8 15.3999 21.63 14.2199 21.63ZM7.63988 7.02999C4.85988 7.95999 3.86988 9.05999 3.86988 9.77999C3.86988 10.5 4.85988 11.6 7.63988 12.52L10.1599 13.36C10.3799 13.43 10.5599 13.61 10.6299 13.83L11.4699 16.35C12.3899 19.13 13.4999 20.12 14.2199 20.12C14.9399 20.12 16.0399 19.13 16.9699 16.35L19.7999 7.85999C20.3099 6.31999 20.2199 5.05999 19.5699 4.40999C18.9199 3.75999 17.6599 3.67999 16.1299 4.18999L7.63988 7.02999Z" fill="#292D32"/>
<path d="M10.1098 14.4C9.9198 14.4 9.7298 14.33 9.5798 14.18C9.2898 13.89 9.2898 13.41 9.5798 13.12L13.1598 9.53C13.4498 9.24 13.9298 9.24 14.2198 9.53C14.5098 9.82 14.5098 10.3 14.2198 10.59L10.6398 14.18C10.4998 14.33 10.2998 14.4 10.1098 14.4Z" fill="#292D32"/>
</svg>
