<svg width="20" height="20" fill="none" xmlns="http://www.w3.org/2000/svg"><path d="M6.75 1.066c-1.767.104-3.048.533-3.949 1.323-.958.842-1.478 1.998-1.691 3.761-.054.452-.06.823-.06 3.833 0 2.982.006 3.388.059 3.846.173 1.495.584 2.577 1.28 3.37.959 1.092 2.34 1.626 4.483 1.734.836.042 5.42.042 6.256 0 2.022-.102 3.31-.562 4.276-1.529.967-.966 1.427-2.254 1.529-4.276.042-.836.042-5.42 0-6.256-.184-3.645-1.697-5.364-5.069-5.759-.413-.049-.917-.058-3.581-.064-1.705-.004-3.295.003-3.533.017m7.233 1.309c.483.08.764.142 1.08.242 1.52.481 2.267 1.475 2.561 3.406.054.36.059.699.059 3.977s-.005 3.617-.059 3.977c-.271 1.782-.925 2.755-2.202 3.276-.363.148-.923.291-1.445.371-.36.054-.699.059-3.977.059-3.951 0-3.886.003-4.749-.215-1.573-.397-2.427-1.296-2.771-2.918-.16-.753-.158-.708-.172-4.283-.009-2.37-.002-3.509.025-3.8.249-2.719 1.356-3.848 4.05-4.131.147-.016 1.842-.026 3.767-.022 3.065.006 3.541.014 3.833.061M9.879 5.233a.654.654 0 0 0-.414.307l-.082.143v8.634l.084.149a.615.615 0 0 0 1.066 0l.084-.149V5.683l-.089-.15a.623.623 0 0 0-.649-.3M7.283 6.45a.605.605 0 0 0-.379.447c-.052.239-.052 5.964-.001 6.202a.613.613 0 0 0 1.07.273.748.748 0 0 0 .124-.273c.052-.241.05-5.963-.002-6.206a.613.613 0 0 0-.412-.456.528.528 0 0 0-.4.013m5 0a.605.605 0 0 0-.379.447c-.052.239-.052 5.964-.001 6.202a.613.613 0 0 0 1.07.273.748.748 0 0 0 .124-.273c.052-.241.05-5.963-.002-6.206a.613.613 0 0 0-.412-.456.528.528 0 0 0-.4.013M4.808 7.626a.83.83 0 0 0-.366.317c-.054.099-.059.259-.059 2.024 0 1.054.012 1.957.026 2.007.035.126.218.327.348.381a.7.7 0 0 0 .486 0c.13-.054.313-.255.348-.381.014-.05.026-.946.026-1.991 0-1.834-.003-1.904-.067-2.031a.578.578 0 0 0-.487-.336.952.952 0 0 0-.255.01m10 0a.83.83 0 0 0-.366.317c-.054.099-.059.259-.059 2.024 0 1.054.012 1.957.026 2.007.035.126.218.327.348.381a.7.7 0 0 0 .486 0c.13-.054.313-.255.348-.381.014-.05.026-.946.026-1.991 0-1.834-.003-1.904-.067-2.031a.578.578 0 0 0-.487-.336.952.952 0 0 0-.255.01" fill-rule="evenodd" fill="#000"/></svg>